<svg version="1.1" id="Layer_1" xmlns="http://www.w3.org/2000/svg" xmlns:xlink="http://www.w3.org/1999/xlink" x="0px" y="0px" viewBox="0 0 500 500" style="width: 158px;" xml:space="preserve" data-imageid="daenerys-targaryen-7" imageName="Daenerys Targaryen" class="illustrations_image">
<style type="text/css">
	.st0_daenerys-targaryen-7{fill:#FFFFFF;}
	.st1_daenerys-targaryen-7{fill:#093F68;}
	.st2_daenerys-targaryen-7{fill:#68E1FD;}
	.st3_daenerys-targaryen-7{fill:#F56132;}
	.st4_daenerys-targaryen-7{fill:#FFC9B0;}
	.st5_daenerys-targaryen-7{fill:#725858;}
</style>
<g id="circle_daenerys-targaryen-7">
	<path class="st0_daenerys-targaryen-7" d="M429.1,249.8c0,61.5-31.5,118.6-83.4,151.4c-4,2.6-8.1,5-12.5,7.2c-11.4,6-23.4,10.7-35.8,14.1&#10;&#9;&#9;c-7.5,2.1-15.2,3.7-23,4.7c-8.1,1.1-16.3,1.7-24.5,1.7h-2.3c-28.2-0.3-56-7.4-81-20.5c-4.3-2.2-8.4-4.6-12.4-7.2&#10;&#9;&#9;C70.7,348.4,45.7,237.8,98.6,154.2S262.1,45.7,345.7,98.5C397.6,131.4,429.1,188.4,429.1,249.8z"/>
	<path class="st1_daenerys-targaryen-7" d="M250,430.9c-0.8,0-1.6,0-2.3,0c-28.5-0.4-56.6-7.4-81.8-20.7c-4.3-2.2-8.5-4.7-12.6-7.3&#10;&#9;&#9;c-52.6-33.1-84.5-90.9-84.3-153.1C68.9,150,150.1,68.8,250,68.8S431.1,150,431.1,249.8c0.2,62.2-31.7,120-84.4,153.1&#10;&#9;&#9;c-4,2.6-8.3,5-12.6,7.3c-11.5,6.1-23.6,10.8-36.1,14.3c-7.6,2.1-15.4,3.7-23.3,4.8C266.5,430.3,258.3,430.9,250,430.9z M250,72.7&#10;&#9;&#9;c-97.7,0-177.2,79.5-177.2,177.2c-0.2,60.8,31,117.4,82.5,149.8c4,2.5,8.1,4.9,12.3,7.1c24.7,13,52.2,19.9,80.1,20.3&#10;&#9;&#9;c0.8,0,1.5,0,2.3,0c8.1,0,16.2-0.6,24.2-1.7c7.7-1,15.3-2.6,22.8-4.7c12.3-3.4,24.1-8,35.4-14c4.2-2.2,8.4-4.6,12.3-7.1&#10;&#9;&#9;c51.5-32.4,82.7-89,82.5-149.8C427.2,152.1,347.7,72.7,250,72.7z"/>
</g>
<g id="character_daenerys-targaryen-7">
	<path class="st1_daenerys-targaryen-7" d="M345.7,328.6v72.6c-4,2.6-8.1,5-12.5,7.2c-11.4,6-23.4,10.7-35.8,14.1c-7.5,2.1-15.2,3.7-23,4.7&#10;&#9;&#9;c-8.1,1.1-16.3,1.7-24.5,1.7h-2.3c-28.2-0.3-56-7.4-81-20.5c-4.3-2.2-8.4-4.6-12.4-7.2v-72.7H345.7z"/>
	<path class="st1_daenerys-targaryen-7" d="M250,430.9c-0.8,0-1.6,0-2.3,0c-28.5-0.4-56.6-7.4-81.8-20.7c-4.3-2.2-8.5-4.7-12.6-7.3&#10;&#9;&#9;c-0.6-0.4-0.9-1-0.9-1.6v-72.7c0-1.1,0.9-1.9,1.9-2h191.4c1.1,0,1.9,0.9,2,2v72.6c0,0.7-0.3,1.3-0.9,1.6c-4,2.6-8.3,5-12.6,7.3&#10;&#9;&#9;c-11.5,6.1-23.6,10.8-36.1,14.3c-7.6,2.1-15.4,3.7-23.3,4.8C266.5,430.3,258.3,430.9,250,430.9z M156.3,400.2&#10;&#9;&#9;c3.7,2.3,7.5,4.5,11.4,6.5c24.7,13,52.2,19.9,80.1,20.3c0.8,0,1.5,0,2.3,0c8.1,0,16.2-0.6,24.2-1.7c7.7-1,15.3-2.6,22.8-4.7&#10;&#9;&#9;c12.3-3.4,24.1-8,35.4-14c3.9-2,7.7-4.2,11.4-6.5v-69.6H156.3L156.3,400.2z"/>
	<path class="st2_daenerys-targaryen-7 targetColor" d="M359.7,326.6l-14,43.4l-12.5,38.4c-11.4,6-23.4,10.7-35.8,14.1c-7.5,2.1-15.2,3.7-23,4.7&#10;&#9;&#9;c-8.1,1.1-16.3,1.7-24.5,1.7h-2.3c-28.2-0.3-56-7.4-81-20.5L154.3,370l-14-43.4l33.1-17.2l17.4-9l1-0.5l0.9-0.5l5.8-3l2.7-1.4&#10;&#9;&#9;l6.6-3.4l15.6-8.1l4.8-2.5l3.2-1.6c1.9-1,3.9-1.8,5.9-2.5c8-2.7,16.7-2.8,24.7-0.3c2.3,0.7,4.6,1.7,6.7,2.8l1.9,1&#10;&#9;&#9;c0.1,0,0.2,0.1,0.3,0.1l6.4,3.3l21.6,11.2l2.7,1.4l1.4,0.7l4.3,2.3l2,1l9.9,5.1l14.4,7.5L359.7,326.6z" style="fill: rgb(104, 225, 253);"/>
	<path class="st1_daenerys-targaryen-7" d="M250,430.9c-0.8,0-1.6,0-2.3,0c-28.5-0.4-56.6-7.4-81.8-20.7c-0.4-0.2-0.8-0.6-0.9-1.1l-26.5-81.8&#10;&#9;&#9;c-0.3-0.9,0.1-1.9,1-2.3l91-47.2c2-1,4.1-1.9,6.2-2.6c8.4-2.8,17.5-2.9,25.9-0.3c2.4,0.8,4.8,1.7,7.1,2.9l1.9,1l0.2,0.1l89,46.1&#10;&#9;&#9;c0.9,0.4,1.3,1.4,1,2.3l-26.6,81.8c-0.2,0.5-0.5,0.9-1,1.1c-11.5,6.1-23.6,10.9-36.1,14.3c-7.6,2.1-15.4,3.7-23.3,4.8&#10;&#9;&#9;C266.5,430.3,258.3,430.9,250,430.9z M168.4,407.1c24.5,12.7,51.7,19.6,79.4,19.9c0.8,0,1.5,0,2.3,0c8.1,0,16.2-0.6,24.2-1.7&#10;&#9;&#9;c7.7-1,15.3-2.6,22.8-4.7c12-3.3,23.6-7.8,34.6-13.6l25.7-79.5L270,282.3l-0.2-0.1l-2-1c-2.1-1.1-4.2-1.9-6.4-2.6&#10;&#9;&#9;c-7.7-2.4-15.9-2.3-23.5,0.3c-1.9,0.6-3.8,1.4-5.6,2.4l-89.6,46.5L168.4,407.1z"/>
	<path class="st1_daenerys-targaryen-7" d="M226.8,429.4c-0.8,0-1.5-0.5-1.8-1.1l-41.8-92.5l-0.1-0.2l-11.5-25.4c-0.2-1.1,0.4-2.1,1.5-2.4&#10;&#9;&#9;c0.8-0.2,1.6,0.1,2.1,0.8l11.6,25.5l0.1,0.2l41.8,92.3c0.5,1,0,2.1-0.9,2.6C227.4,429.3,227.1,429.4,226.8,429.4L226.8,429.4z"/>
	<path class="st1_daenerys-targaryen-7" d="M284.2,398.8c-0.4,0-0.7-0.1-1-0.3c-0.9-0.6-1.2-1.7-0.7-2.7l49.3-83.9c0.7-0.8,2-0.9,2.8-0.2&#10;&#9;&#9;c0.6,0.5,0.8,1.4,0.6,2.2l-49.3,83.8C285.6,398.4,284.9,398.8,284.2,398.8z"/>
	<path class="st1_daenerys-targaryen-7" d="M275.7,382.4c-0.4,0-0.7-0.1-1-0.3c-0.9-0.6-1.2-1.7-0.7-2.7l43.4-74.9c0.7-0.8,2-0.9,2.8-0.2&#10;&#9;&#9;c0.6,0.5,0.9,1.4,0.6,2.2l-43.4,74.9C277,382,276.4,382.4,275.7,382.4z"/>
	<path class="st1_daenerys-targaryen-7" d="M247.7,430.9c-0.8,0-1.5-0.5-1.8-1.2L189.3,299c0,0,0,0,0-0.1l0,0c-0.7-0.9-0.6-2.1,0.3-2.8&#10;&#9;&#9;c0.9-0.7,2.1-0.6,2.8,0.3c0.2,0.2,0.3,0.5,0.4,0.8l0.1,0.2c0,0.1,0.1,0.2,0.1,0.3l0.7,1.6l55.9,129c0.4,1-0.1,2.2-1.1,2.6&#10;&#9;&#9;C248.2,430.9,248,430.9,247.7,430.9L247.7,430.9z"/>
	<path class="st1_daenerys-targaryen-7" d="M266.9,362c-0.4,0-0.7-0.1-1-0.3c-0.9-0.6-1.2-1.7-0.7-2.7l36-63c0.7-0.8,2-0.9,2.8-0.1&#10;&#9;&#9;c0.6,0.5,0.8,1.3,0.6,2.1l-36,63C268.2,361.6,267.6,362,266.9,362z"/>
	<path class="st1_daenerys-targaryen-7" d="M297.5,424.5c-0.7,0-1.4-0.4-1.7-1.1L274,381.3c0-0.1-0.1-0.1-0.1-0.2l-25.2-48.9c-0.7-0.9-0.6-2.1,0.3-2.8&#10;&#9;&#9;c0.9-0.7,2.1-0.6,2.8,0.3c0.2,0.2,0.3,0.5,0.4,0.7l25.3,49l0.1,0.2l21.7,42c0.5,1,0.1,2.1-0.8,2.6&#10;&#9;&#9;C298.1,424.4,297.8,424.5,297.5,424.5z"/>
	<path class="st3_daenerys-targaryen-7" d="M277.3,283.9l-26.9,47.5l-27.1-47.8l4.8-2.5c13.7-7.1,30-7.1,43.7,0L277.3,283.9z"/>
	<path class="st1_daenerys-targaryen-7" d="M250.4,333.3c-0.7,0-1.4-0.4-1.7-1l-27.1-47.8c-0.5-0.9-0.2-2.1,0.7-2.7c0,0,0.1,0,0.1,0l4.8-2.5&#10;&#9;&#9;c14.3-7.4,31.2-7.4,45.5,0l5.4,2.8c1,0.5,1.3,1.7,0.8,2.7l-26.9,47.5C251.8,332.9,251.1,333.3,250.4,333.3L250.4,333.3z M226,284.4&#10;&#9;&#9;l24.4,43l24.2-42.7l-3.6-1.9c-13.1-6.8-28.8-6.8-41.9,0L226,284.4z"/>
	<path class="st4_daenerys-targaryen-7" d="M237.2,283.9v-14.2H262v14.2c0,0-2.8,6.6-12.4,6.6S237.2,283.9,237.2,283.9z"/>
	<path class="st1_daenerys-targaryen-7" d="M249.6,292.5c-10.7,0-14-7.5-14.2-7.8c-0.1-0.2-0.2-0.5-0.1-0.8v-14.2c0-1.1,0.9-2,2-2H262c1.1,0,2,0.9,2,2&#10;&#9;&#9;v14.2c0,0.3-0.1,0.5-0.2,0.8C263.6,285,260.3,292.5,249.6,292.5z M239.2,283.5c0.7,1.2,3.4,5.1,10.4,5.1s9.8-4,10.4-5.1v-11.9&#10;&#9;&#9;h-20.8V283.5z"/>
	<path class="st4_daenerys-targaryen-7" d="M250.5,110.1c-7.2,0.4-14.4,1.9-21.1,4.4c-11,4-23.9,10.2-32.3,18.4c-2.1,2.1-15.9,13.3-16.4,15.2&#10;&#9;&#9;c-3.5,15.9-3.6,33.4-3.6,49.6c0,41.8,32.5,75.7,72.5,75.7s72.5-33.9,72.5-75.7V139c-5.8,0-13.5-5.9-17.9-9&#10;&#9;&#9;c-6.8-4.6-14-8.5-21.5-11.8c-5.2-2.6-10.6-4.7-16.2-6.3C261.3,110.5,255.9,109.9,250.5,110.1z"/>
	<path class="st1_daenerys-targaryen-7" d="M249.6,275.5c-41.1,0-74.4-34.9-74.4-77.7c0-14.9,0-33.4,3.7-50.1c0.4-1.6,3-4.2,13-12.8&#10;&#9;&#9;c1.8-1.6,3.4-2.9,3.9-3.4c9.4-9.1,23.1-15.3,33-18.9c7-2.6,14.3-4.1,21.7-4.5l0,0c5.6-0.3,11.2,0.3,16.6,1.6&#10;&#9;&#9;c5.7,1.7,11.2,3.8,16.5,6.5c7.6,3.3,14.9,7.4,21.8,12l1.4,1c4.3,3.1,10.8,7.7,15.4,7.7c1.1,0,2,0.9,2,2v58.9&#10;&#9;&#9;C324,240.7,290.6,275.5,249.6,275.5z M182.6,148.8c-3.6,16.2-3.6,34.4-3.6,49c0,40.7,31.6,73.8,70.5,73.8s70.6-33.1,70.6-73.8&#10;&#9;&#9;v-57.1c-5.4-0.9-11.5-5.3-15.7-8.2l-1.4-1c-6.7-4.5-13.8-8.4-21.1-11.7c-5.1-2.5-10.4-4.6-15.8-6.2c-5-1.3-10.2-1.8-15.4-1.5&#10;&#9;&#9;c-7,0.4-14,1.8-20.6,4.3c-7.8,2.8-22.3,9-31.6,18c-0.6,0.6-2.1,1.9-4.1,3.6C190.8,141,183.6,147.2,182.6,148.8L182.6,148.8z"/>
	<path class="st1_daenerys-targaryen-7" d="M252.6,230.6c-2.2,0-4.4-0.2-6.5-0.5c-1.1,0-2-0.8-2.1-1.9s0.8-2,1.9-2.1c0.3,0,0.6,0,0.8,0.1&#10;&#9;&#9;c0.1,0,5.9,1,10,0.1c1.2-2.7-1.4-16.9-4.6-28.9c-0.5-1-0.1-2.2,0.8-2.7c1-0.5,2.2-0.1,2.7,0.8c0.1,0.3,0.2,0.6,0.2,0.9&#10;&#9;&#9;c1.7,6.3,7,27.2,4.1,32.1c-0.4,0.8-1.1,1.3-2,1.6C256.3,230.5,254.5,230.7,252.6,230.6z"/>
	<path class="st1_daenerys-targaryen-7" d="M235.8,180.7h-32c-1.7,0.1-3.2-1.2-3.3-2.9s1.2-3.2,2.9-3.3c0.1,0,0.2,0,0.4,0h32c1.7-0.1,3.2,1.2,3.3,2.9&#10;&#9;&#9;s-1.2,3.2-2.9,3.3C236.1,180.7,235.9,180.7,235.8,180.7z"/>
	<path class="st1_daenerys-targaryen-7" d="M269.2,180.7c-1.7-0.1-3-1.6-2.9-3.3c0.1-1.6,1.3-2.8,2.9-2.9h32c1.7-0.1,3.2,1.2,3.3,2.9s-1.2,3.2-2.9,3.3&#10;&#9;&#9;c-0.1,0-0.2,0-0.4,0H269.2z"/>
	<path class="st1_daenerys-targaryen-7" d="M272,249.3c-0.2,0-0.3,0-0.5-0.1c-13.3-3.2-27.1-3.3-40.4-0.2c-1,0.5-2.2,0.1-2.7-0.9c-0.5-1-0.1-2.2,0.9-2.7&#10;&#9;&#9;c0.2-0.1,0.5-0.2,0.8-0.2c14-3.3,28.5-3.3,42.4,0.1c1,0.4,1.5,1.6,1.1,2.6C273.3,248.7,272.7,249.2,272,249.3z"/>
	<circle class="st1_daenerys-targaryen-7" cx="221.7" cy="198.3" r="6.7"/>
	<path class="st1_daenerys-targaryen-7" d="M207.2,196.5c-1.1-0.1-1.9-1.1-1.7-2.2c0.1-0.7,0.6-1.3,1.2-1.6c9-2.1,18.4-2.3,27.5-0.6c1.1,0,2,0.9,2,2&#10;&#9;&#9;c0,1.1-0.9,2-2,2c-0.3,0-0.6-0.1-0.8-0.2c-8.5-1.6-17.3-1.4-25.7,0.6C207.6,196.5,207.4,196.5,207.2,196.5z"/>
	<circle class="st1_daenerys-targaryen-7" cx="283.2" cy="198.3" r="6.7"/>
	<path class="st1_daenerys-targaryen-7" d="M297.7,196.5c-0.2,0-0.3,0-0.5-0.1c-8.4-2-17.2-2.1-25.7-0.6c-1,0.4-2.2,0-2.6-1c-0.4-1,0-2.2,1-2.6&#10;&#9;&#9;c0.3-0.1,0.5-0.2,0.8-0.2c9.1-1.7,18.5-1.5,27.5,0.6c1,0.4,1.5,1.6,1.1,2.6C299,195.9,298.4,196.4,297.7,196.5z"/>
	<path class="st5_daenerys-targaryen-7" d="M189,291.7c0,0,5.4,11.8-2.2,22.5s-6.5,14.1-3.6,19s19.4,5.1,24.3,13.7s6.4,19.5-10.3,23.8&#10;&#9;&#9;c0,0,18.2,4.5,22.5-15.8s-13.8-26.5-19.3-30.2s4.1-16.3,4.1-16.3S199.7,290.6,189,291.7z"/>
	<path class="st1_daenerys-targaryen-7" d="M201.3,373c-1.6,0-3.1-0.1-4.7-0.5c-0.9-0.2-1.5-1-1.5-1.9c0-0.9,0.6-1.7,1.5-1.9c6.1-1.6,10-4.1,11.4-7.6&#10;&#9;&#9;c1.8-4.4-0.3-9.6-2.4-13.3c-2.4-4.2-8.5-6.2-13.9-8c-4.7-1.6-8.7-2.9-10.4-5.6c-3.6-6.1-3.9-10.5,3.8-21.2c6.8-9.6,2.2-20.1,2-20.5&#10;&#9;&#9;c-0.4-1,0-2.2,1.1-2.6c0.2-0.1,0.3-0.1,0.5-0.1c12.2-1.2,17.3,17.4,17.5,18.1c0.2,0.6,0,1.2-0.3,1.7c-2.4,3.1-5.9,9.1-5.4,12.2&#10;&#9;&#9;c0.1,0.5,0.3,1,0.8,1.3c0.7,0.5,1.7,1,2.9,1.6c7.4,4.1,21.3,11.7,17.3,30.6c-1.4,6.9-4.6,11.9-9.3,14.9&#10;&#9;&#9;C208.9,372,205.1,373.1,201.3,373z M191.8,293.8c2.2,7.3,0.9,15.2-3.4,21.4c-7.4,10.4-5.9,13-3.6,16.9c0.9,1.5,4.6,2.7,8.2,3.9&#10;&#9;&#9;c6.1,2,12.9,4.3,16.1,9.8c3.6,6.3,4.5,12.1,2.6,16.7c-0.9,2.2-2.4,4-4.3,5.4c1-0.3,1.9-0.8,2.8-1.4c3.8-2.4,6.3-6.5,7.5-12.3&#10;&#9;&#9;c3.4-16-8.4-22.5-15.4-26.3c-1.2-0.7-2.3-1.3-3.1-1.8c-1.3-0.9-2.2-2.3-2.5-3.9c-0.8-4.9,3.8-11.9,5.5-14.4&#10;&#9;&#9;C201.3,305,197.9,295.6,191.8,293.8L191.8,293.8z"/>
	<path class="st5_daenerys-targaryen-7" d="M175.3,226.7c0,0,3,18.1,0,27.3c-1.5,5-3.6,9.8-6.2,14.4l14.4,9.6c0,0,11.9-16.5,13.6-31.9&#10;&#9;&#9;C197.1,246.1,197.1,236.7,175.3,226.7z"/>
	<path class="st1_daenerys-targaryen-7" d="M183.5,279.9c-0.4,0-0.8-0.1-1.1-0.3L168,270c-0.9-0.6-1.1-1.8-0.6-2.7c2.5-4.4,4.5-9.1,6-13.9&#10;&#9;&#9;c2.8-8.7,0-26.2-0.1-26.4c-0.1-1.1,0.6-2.1,1.7-2.2c0.3,0,0.7,0,1,0.1c22.3,10.2,22.9,20.1,22.9,21.1c0,0.1,0,0.1,0,0.2&#10;&#9;&#9;c-1.8,15.7-13.4,32.1-13.9,32.8C184.7,279.6,184.1,279.9,183.5,279.9z M171.7,267.7l11.3,7.5c2.9-4.4,10.8-17.3,12.2-29.2&#10;&#9;&#9;c-0.1-0.7-1.4-7.8-17.4-16c0.7,5.9,1.7,17.5-0.6,24.6C175.7,259.1,173.9,263.5,171.7,267.7z M197.1,246.1L197.1,246.1z"/>
	<path class="st5_daenerys-targaryen-7" d="M169.1,268.4c0,0,9.1,1.1,11.8,5.4s18,15,21.2,23.1s2.4,11.5,2.4,11.5s-24.4-19.7-29.8-20&#10;&#9;&#9;C174.6,288.4,168.2,274.8,169.1,268.4z"/>
	<path class="st1_daenerys-targaryen-7" d="M204.4,310.3c-0.4,0-0.9-0.2-1.2-0.4c-11.8-9.5-25.7-19.4-28.6-19.6c-0.7-0.1-1.3-0.5-1.6-1.1&#10;&#9;&#9;c-0.7-1.5-6.6-14.3-5.7-21.1c0.2-1,1.1-1.8,2.2-1.7c1,0.1,10.1,1.3,13.2,6.3c0.9,1.4,3.7,3.9,6.6,6.6c5.6,5,12.5,11.3,14.7,16.8&#10;&#9;&#9;c3.3,8.5,2.5,12.3,2.4,12.8c-0.2,0.6-0.7,1.2-1.3,1.4C204.8,310.3,204.6,310.3,204.4,310.3z M176,286.7&#10;&#9;&#9;c5.8,1.8,19.4,12.1,26.2,17.5c-0.5-2.3-1.1-4.5-2-6.6c-1.8-4.7-8.4-10.6-13.7-15.4c-3.5-3.1-6.2-5.6-7.4-7.4&#10;&#9;&#9;c-1.3-2.2-5.4-3.5-8.2-4.1C171.4,275.5,174.4,283,176,286.7z"/>
	<path class="st5_daenerys-targaryen-7" d="M311,291.7c0,0-5.4,11.8,2.2,22.5s6.5,14.1,3.6,19s-19.4,5.1-24.3,13.7s-6.4,19.5,10.3,23.8&#10;&#9;&#9;c0,0-18.2,4.5-22.5-15.8s13.8-26.5,19.3-30.2s-4.1-16.3-4.1-16.3S300.3,290.6,311,291.7z"/>
	<path class="st1_daenerys-targaryen-7" d="M298.7,373c-3.8,0.1-7.6-1-10.9-3c-4.7-3-7.9-8-9.3-14.9c-4-18.9,9.9-26.5,17.3-30.6c1.2-0.6,2.1-1.2,2.9-1.6&#10;&#9;&#9;c0.4-0.3,0.7-0.7,0.8-1.3c0.5-3.1-3-9.1-5.4-12.2c-0.4-0.5-0.5-1.1-0.3-1.7c0.2-0.8,5.3-19.4,17.5-18.1c1.1,0.1,1.9,1.1,1.7,2.2&#10;&#9;&#9;c0,0.2-0.1,0.4-0.1,0.5c-0.2,0.5-4.8,10.9,2,20.5c7.6,10.7,7.4,15,3.7,21.2c-1.6,2.8-5.7,4.1-10.4,5.6c-5.4,1.8-11.5,3.8-13.9,8&#10;&#9;&#9;c-2.1,3.6-4.2,8.9-2.4,13.3c1.5,3.5,5.3,6,11.4,7.6c0.9,0.2,1.5,1,1.5,1.9c0,0.9-0.6,1.7-1.5,1.9C301.8,372.8,300.3,373,298.7,373z&#10;&#9;&#9; M297.8,308c1.8,2.5,6.4,9.5,5.5,14.4c-0.2,1.6-1.1,3-2.5,3.9c-0.8,0.6-1.9,1.1-3.1,1.8c-7,3.9-18.7,10.3-15.4,26.3&#10;&#9;&#9;c1.2,5.8,3.8,10,7.5,12.4c0.9,0.5,1.8,1,2.8,1.3c-1.9-1.4-3.3-3.3-4.3-5.5c-2-4.6-1.1-10.4,2.6-16.7c3.2-5.5,10-7.8,16.1-9.8&#10;&#9;&#9;c3.6-1.2,7.4-2.4,8.2-3.9c2.3-3.9,3.8-6.5-3.6-16.9c-4.3-6.2-5.6-14.1-3.5-21.4C302.1,295.6,298.7,305,297.8,308L297.8,308z"/>
	<path class="st5_daenerys-targaryen-7" d="M324.7,226.7c0,0-3,18.1,0,27.3c1.5,5,3.6,9.8,6.2,14.4l-14.5,9.6c0,0-11.9-16.5-13.6-31.9&#10;&#9;&#9;C302.9,246.1,302.9,236.7,324.7,226.7z"/>
	<path class="st1_daenerys-targaryen-7" d="M316.5,279.9c-0.6,0-1.2-0.3-1.6-0.8c-0.5-0.7-12.2-17.1-14-32.8c0-0.1,0-0.1,0-0.2c0-1.1,0.6-10.9,23-21.1&#10;&#9;&#9;c0.7-0.3,1.4-0.2,2,0.2c0.6,0.4,0.8,1.2,0.7,1.9c0,0.2-2.9,17.7-0.1,26.4c1.5,4.8,3.5,9.5,6,13.9c0.5,0.9,0.3,2.1-0.6,2.7&#10;&#9;&#9;l-14.4,9.6C317.2,279.8,316.9,279.9,316.5,279.9z M304.9,246.1c1.4,12,9.3,24.8,12.1,29.2l11.3-7.5c-2.2-4.2-4-8.6-5.5-13.1&#10;&#9;&#9;c-2.3-7.1-1.3-18.6-0.6-24.6C306.4,238.1,305,245.2,304.9,246.1z"/>
	<path class="st5_daenerys-targaryen-7" d="M330.9,268.4c0,0-9.1,1.1-11.8,5.4s-18,15-21.2,23.1s-2.4,11.5-2.4,11.5s24.4-19.7,29.8-20&#10;&#9;&#9;C325.4,288.4,331.8,274.8,330.9,268.4z"/>
	<path class="st1_daenerys-targaryen-7" d="M295.6,310.3c-0.2,0-0.4,0-0.6-0.1c-0.6-0.2-1.1-0.7-1.3-1.4c-0.1-0.4-0.9-4.3,2.4-12.8&#10;&#9;&#9;c2.2-5.5,9.1-11.8,14.7-16.8c3-2.7,5.8-5.2,6.6-6.6c3.1-4.9,12.2-6.1,13.2-6.3c1.1-0.1,2,0.6,2.2,1.7c0.9,6.8-5.1,19.7-5.7,21.1&#10;&#9;&#9;c-0.3,0.6-0.9,1.1-1.6,1.1c-3,0.2-16.9,10.1-28.6,19.6C296.5,310.2,296.1,310.3,295.6,310.3z M329,270.7c-2.8,0.6-6.9,1.9-8.2,4.1&#10;&#9;&#9;c-1.1,1.8-3.9,4.3-7.4,7.4c-5.3,4.8-11.8,10.7-13.7,15.4c-0.9,2.1-1.5,4.4-2,6.6c6.9-5.4,20.5-15.7,26.2-17.5&#10;&#9;&#9;C325.6,283,328.6,275.5,329,270.7z"/>
	<path class="st5_daenerys-targaryen-7" d="M197.1,248.3c0,0,4.3-4.7,0-23.4s-10.1-45.4,1-64.9s19.2-22,38.4-23.1s32.1,1.1,42.8,0&#10;&#9;&#9;c0,0,20.1,14.1,25.2,27.3s9,43.7,5.8,54.9s-10.9,23.1-4.5,40.7c0,0,15.8-26,24.4-29.2c0,0,4.7-30.6,0-44c4.1-5.5,6.2-12.3,6-19.1&#10;&#9;&#9;c-0.4-11.2-6.4-18.4-9.9-20.5c0,0-2.1-18.4-6.4-20.9l-4.3-2.5c0,0,4.7-9,1.3-12.2s-11.5-2.2-11.5-2.2s-5.6-7.2-14.1-9.4&#10;&#9;&#9;s-19.7-1.4-19.7-1.4s-33.8-11.5-55.2-2.9S189,109.9,189,109.9s-9.4,0.7-9,5.8l0.4,5c0,0-13.7,15.5-10.3,28.3c0,0-6.4,1.2-6.4,7.7&#10;&#9;&#9;s0.9,21.9,5.6,26.3c0,0-7.3,38-2.1,43.9S195.8,237.8,197.1,248.3z"/>
	<path class="st1_daenerys-targaryen-7" d="M305.9,261.8h-0.2c-0.7-0.1-1.4-0.6-1.6-1.3c-5.3-14.7-1.4-25.4,2.1-35c0.9-2.4,1.7-4.7,2.4-7&#10;&#9;&#9;c3.1-10.7-0.8-41.1-5.7-53.7c-4.4-11.2-20.7-23.6-24-26c-5.6,0.3-11.1,0.3-16.7,0c-8.5-0.4-17-0.4-25.5,0&#10;&#9;&#9;c-18.6,1-26.1,3.1-36.8,22.1c-10.9,19.2-4.8,45.8-0.8,63.5c4.4,19.2,0.1,24.6-0.5,25.2c-0.5,0.5-1.3,0.7-2,0.5&#10;&#9;&#9;c-0.7-0.2-1.2-0.9-1.3-1.6c-0.7-5.5-10-9.8-17.5-13.3c-5.3-2.4-9.8-4.6-12-7.1c-5.2-6,0-36.3,1.5-44.6c-5.1-6.3-5.4-23.4-5.4-26.9&#10;&#9;&#9;c-0.1-4,2.4-7.6,6.1-9.1c-1.9-11.8,8-24.6,10.5-27.6l-0.4-4.2c-0.1-1.5,0.3-3,1.3-4.1c2.3-2.7,7-3.5,8.8-3.7&#10;&#9;&#9;c1.9-1.6,9.2-6.9,27.5-14.3c20.9-8.4,52.3,1.4,56.2,2.7c2.1-0.1,12-0.5,19.9,1.5c7.4,1.9,12.6,7.1,14.5,9.2&#10;&#9;&#9;c2.6-0.2,8.8-0.3,12.1,2.8c3.5,3.3,1.3,9.7-0.1,12.9l2.7,1.6c4.5,2.6,6.6,16.2,7.3,21.5c3.6,2.8,9.5,10,10,21.6&#10;&#9;&#9;c0.2,7-1.9,13.8-5.8,19.6c4.3,14.1,0,42.7-0.2,43.9c-0.1,0.7-0.6,1.3-1.2,1.5c-6.5,2.5-19.1,21.3-23.4,28.4&#10;&#9;&#9;C307.1,261.4,306.5,261.7,305.9,261.8z M279.3,134.9c0.4,0,0.8,0.1,1.1,0.4c0.8,0.6,20.7,14.6,26,28.1c5.2,13.3,9.1,44.6,5.8,56.2&#10;&#9;&#9;c-0.7,2.4-1.5,4.7-2.5,7.2c-3,8.4-6.2,17-3.3,28.3c4.6-7.2,14.8-22.1,22-25.9c0.8-5.4,4-30.6-0.1-42c-0.2-0.6-0.1-1.3,0.3-1.9&#10;&#9;&#9;c3.7-5.2,5.7-11.4,5.6-17.8c-0.4-11.2-6.6-17.5-8.9-19c-0.5-0.3-0.8-0.8-0.9-1.4c-1-8.4-3.4-18.2-5.5-19.4l-4.3-2.5&#10;&#9;&#9;c-0.9-0.5-1.2-1.7-0.7-2.6c1.6-3.1,3.3-8.4,1.7-9.9c-2.2-2.1-8.1-1.9-10-1.7c-0.7,0.1-1.4-0.2-1.8-0.7c0-0.1-5.3-6.7-13.1-8.7&#10;&#9;&#9;c-8.1-2.1-19-1.4-19.1-1.4c-0.3,0-0.5,0-0.8-0.1c-0.3-0.1-33.4-11.2-53.9-2.9s-26.7,14-26.8,14c-0.3,0.3-0.7,0.5-1.2,0.5&#10;&#9;&#9;c-2,0.2-5.5,1-6.8,2.4c-0.3,0.3-0.5,0.8-0.4,1.2l0.4,5c0,0.5-0.1,1.1-0.5,1.5c-0.1,0.2-13,14.9-9.9,26.5c0.3,1.1-0.4,2.2-1.5,2.4&#10;&#9;&#9;c0,0,0,0,0,0c-0.5,0.1-4.9,1.1-4.9,5.8c0,9.8,1.6,21.7,4.9,24.8c0.5,0.5,0.7,1.1,0.6,1.8c-2.9,15.4-5.7,38.6-2.6,42.2&#10;&#9;&#9;c1.6,1.9,6.1,3.9,10.7,6.1c6.6,3.1,13.9,6.5,17.5,11.2c0.4-3.3,0.4-8.8-1.6-17.6c-4.2-18.2-10.5-45.8,1.2-66.3s20.6-23,40-24.1&#10;&#9;&#9;c8.6-0.4,17.2-0.4,25.8,0c5.6,0.4,11.3,0.4,16.9,0L279.3,134.9z"/>
	<path class="st1_daenerys-targaryen-7" d="M246.3,388.9c-10.5,0-18.9-8.5-18.9-19c0-10.5,8.5-18.9,19-18.9c10.5,0,18.9,8.5,18.9,19c0,0,0,0,0,0.1&#10;&#9;&#9;C265.2,380.4,256.7,388.9,246.3,388.9z M246.3,354.9c-8.3,0-15,6.7-15,15c0,8.3,6.7,15,15,15s15-6.7,15-15l0,0&#10;&#9;&#9;C261.3,361.6,254.6,354.9,246.3,354.9L246.3,354.9z"/>
	<path class="st1_daenerys-targaryen-7" d="M274.5,429.2c-0.7,0-1.4-0.4-1.8-1.1l-17.2-34.9c0,0-0.1-0.1-0.1-0.2l-3.4-7c-0.7-0.9-0.5-2.1,0.3-2.8&#10;&#9;&#9;c0.9-0.7,2.1-0.5,2.8,0.3c0.2,0.2,0.3,0.5,0.4,0.7l3.5,7.1l0.1,0.2l17.1,34.8c0.5,1,0.1,2.1-0.9,2.6&#10;&#9;&#9;C275,429.1,274.8,429.2,274.5,429.2z"/>
	<path class="st1_daenerys-targaryen-7" d="M238.8,356.7c-0.7,0-1.4-0.4-1.8-1.1l-31-63.1c-0.7-0.9-0.5-2.1,0.3-2.8c0.9-0.7,2.1-0.5,2.8,0.3&#10;&#9;&#9;c0.2,0.2,0.3,0.5,0.4,0.7l31,63.1c0.5,1,0.1,2.1-0.9,2.6C239.4,356.6,239.1,356.7,238.8,356.7z"/>
	<path class="st1_daenerys-targaryen-7" d="M262.1,379.5c0,0-5.3-1.6-9.1,0s-6.7,7.4-6.7,7.4c2.5,3.5,6.7,5.6,11,5.4C259.8,388.4,261.4,384.1,262.1,379.5&#10;&#9;&#9;z"/>
	<path class="st1_daenerys-targaryen-7" d="M256.7,394.3c-4.8-0.1-9.3-2.4-12-6.3c-0.4-0.6-0.4-1.3-0.1-1.9c0.3-0.7,3.3-6.6,7.7-8.4&#10;&#9;&#9;c4.4-1.8,10.2-0.1,10.4-0.1c0.9,0.3,1.5,1.2,1.4,2.1c-0.8,4.9-2.5,9.5-5.2,13.7c-0.4,0.5-0.9,0.8-1.5,0.9L256.7,394.3z&#10;&#9;&#9; M248.6,386.7c1.9,2.2,4.6,3.5,7.5,3.6c1.7-2.9,3-6.1,3.7-9.4c-2-0.4-4.2-0.3-6.1,0.3C251.6,382.2,249.7,384.9,248.6,386.7&#10;&#9;&#9;L248.6,386.7z"/>
	<circle class="st1_daenerys-targaryen-7" cx="259.1" cy="395.5" r="6.4"/>
	<path class="st1_daenerys-targaryen-7" d="M259.1,403.8c-4.6,0-8.3-3.7-8.3-8.3s3.7-8.3,8.3-8.3c4.6,0,8.3,3.7,8.3,8.3l0,0&#10;&#9;&#9;C267.5,400.1,263.7,403.8,259.1,403.8z M259.1,391.1c-2.4,0-4.4,2-4.4,4.4s2,4.4,4.4,4.4c2.4,0,4.4-2,4.4-4.4l0,0&#10;&#9;&#9;C263.5,393.1,261.6,391.1,259.1,391.1L259.1,391.1z"/>
	<path class="st1_daenerys-targaryen-7" d="M240.4,396.1c-1.1,0-2-1-1.9-2.1c0-0.3,0.1-0.6,0.2-0.8c1.7-2.9,3.8-5.5,6.3-7.7c1-0.5,2.2-0.1,2.7,0.9&#10;&#9;&#9;c0.4,0.7,0.3,1.5-0.2,2.1c-2.2,1.9-4,4.1-5.4,6.6C241.8,395.7,241.1,396,240.4,396.1z"/>
	<path class="st1_daenerys-targaryen-7" d="M246.3,397.5c-0.2,0-0.5,0-0.7-0.1c-1-0.4-1.5-1.5-1.1-2.5c1.7-4.5,4.3-6,4.6-6.1c1-0.5,2.1-0.1,2.6,0.9&#10;&#9;&#9;c0.5,0.9,0.1,2-0.7,2.6c-0.1,0.1-1.7,1.1-2.8,4.1C247.8,397,247.1,397.5,246.3,397.5z"/>
	<path class="st1_daenerys-targaryen-7" d="M271.6,382.4c-0.4,0-0.7-0.1-1-0.3c-1.9-1.1-6-1-8.2-0.7c-1.1-0.1-1.9-1-1.9-2.1c0-0.8,0.5-1.5,1.3-1.7&#10;&#9;&#9;c0.7-0.1,7.1-1,10.8,1.1c0.9,0.6,1.1,1.9,0.5,2.8C272.8,382,272.2,382.3,271.6,382.4L271.6,382.4z"/>
	<path class="st1_daenerys-targaryen-7" d="M266.9,387.2c-0.1,0-0.2,0-0.4,0c-4.5-0.9-5.9-1.4-6.3-1.6c-0.9-0.7-1-2-0.3-2.8c0.5-0.6,1.3-0.9,2-0.7&#10;&#9;&#9;c1.7,0.6,3.5,1,5.2,1.2c1,0.3,1.6,1.5,1.3,2.5C268.3,386.6,267.6,387.1,266.9,387.2L266.9,387.2z"/>
	<path class="st1_daenerys-targaryen-7" d="M232.5,360.1l2-14.2l11.9,7C246.3,352.9,240.8,352,232.5,360.1z"/>
	<path class="st1_daenerys-targaryen-7" d="M232.5,362c-0.3,0-0.6-0.1-0.9-0.2c-0.7-0.4-1.1-1.2-1.1-2l2-14.2c0.2-1.1,1.2-1.8,2.3-1.6&#10;&#9;&#9;c0.2,0,0.4,0.1,0.6,0.2l11.9,7c0.9,0.7,1.1,1.9,0.4,2.8c-0.4,0.6-1.1,0.9-1.8,0.8l0,0c0,0-4.8-0.5-12.1,6.6&#10;&#9;&#9;C233.5,361.9,233,362.1,232.5,362z M236,349.1l-0.9,6.1c1.8-1.3,3.7-2.4,5.7-3.3L236,349.1z"/>
	<path class="st1_daenerys-targaryen-7" d="M259.1,346c-0.3,0-0.7-0.1-1-0.2c-0.9-0.5-1.3-1.7-0.8-2.7l29.2-52.4c0.7-0.8,2-0.9,2.8-0.2&#10;&#9;&#9;c0.6,0.5,0.8,1.3,0.6,2.1L260.9,345C260.5,345.6,259.9,346,259.1,346z"/>
</g>
</svg>